Coordinates
version=1
nRows=11
nColumns=40
inDegrees=yes

Units are S.I. units (second, meters, Newtons, ...)
Angles are in degrees.

endheader
time	pelvis_tilt	pelvis_list	pelvis_rotation	pelvis_tx	pelvis_ty	pelvis_tz	hip_flexion_r	hip_adduction_r	hip_rotation_r	knee_angle_r	knee_angle_r_beta	ankle_angle_r	subtalar_angle_r	mtp_angle_r	hip_flexion_l	hip_adduction_l	hip_rotation_l	knee_angle_l	knee_angle_l_beta	ankle_angle_l	subtalar_angle_l	mtp_angle_l	lumbar_extension	lumbar_bending	lumbar_rotation	arm_flex_r	arm_add_r	arm_rot_r	elbow_flex_r	pro_sup_r	wrist_flex_r	wrist_dev_r	arm_flex_l	arm_add_l	arm_rot_l	elbow_flex_l	pro_sup_l	wrist_flex_l	wrist_dev_l
     32.61750000	     -0.58083868	     -4.42745837	     -1.62255490	      1.10281283	      0.93030530	      0.46730445	     14.86269560	      0.74850396	     -8.65814052	     21.55149389	     21.55149389	      8.97542429	     -2.48139713	     -3.70269669	      2.68254049	    -10.65976661	     -7.99937420	     32.82313760	     32.82313760	     15.58872005	     -9.85127219	     -6.90953908	     -8.89325060	      4.24903571	      1.83413560	     -3.52189969	    -12.99748177	     -6.88105583	     32.36141261	     46.19655134	      0.00000000	      0.00000000	     14.50517167	    -13.84450292	     -6.73322319	     64.24238423	     47.13890730	      0.00000000	      0.00000000
     32.63057143	     -0.59596365	     -4.51828811	     -1.33719757	      1.10276802	      0.93072479	      0.47024673	     14.27614122	      0.98368523	     -9.14359031	     21.16070168	     21.16070168	      9.18696099	     -2.08915781	     -3.86351596	      4.33749688	    -11.20143973	     -6.93347123	     36.01775684	     36.01775684	     13.08411735	    -11.88507924	     -9.89951294	     -8.95155204	      4.38334133	      2.23280576	     -2.74026594	    -13.42491241	     -5.53005917	     34.81531106	     45.99996787	      0.00000000	      0.00000000	     14.24928872	    -13.31941053	     -6.29314962	     61.64417807	     47.08675286	      0.00000000	      0.00000000
     32.64364286	     -0.45602799	     -4.63093181	     -1.00748646	      1.10250830	      0.93113628	      0.47315007	     13.56188277	      1.26788086	     -9.53434482	     20.82093062	     20.82093062	      9.45814957	     -1.88164775	     -3.91644901	      6.11456266	    -11.81192917	     -5.93428927	     39.73338827	     39.73338827	     11.64396860	    -12.88887493	    -10.08496057	     -9.24427882	      4.44186117	      2.27380437	     -1.00835029	    -13.51106892	     -5.52549341	     35.72624970	     45.97509567	      0.00000000	      0.00000000	     13.51143178	    -13.00727469	     -6.04022079	     60.65103007	     47.04832209	      0.00000000	      0.00000000
     32.65671429	     -0.57425827	     -4.79317544	     -0.56783050	      1.10187103	      0.93101175	      0.47569244	     13.19122080	      1.55154763	    -10.10568315	     20.54517805	     20.54517805	      9.67325135	     -1.65481413	     -4.02145080	      8.40049007	    -12.32809371	     -4.59650306	     43.58549596	     43.58549596	      9.97625867	    -14.23876604	    -10.00826278	     -9.17468314	      4.67690875	      1.96514837	      0.72197963	    -13.61245332	     -5.45981605	     36.96085547	     45.93308756	      0.00000000	      0.00000000	     12.56907064	    -12.80760311	     -5.79845649	     58.77268610	     46.99738493	      0.00000000	      0.00000000
     32.66978571	     -0.61661336	     -4.76837200	     -0.17768497	      1.10105144	      0.93086687	      0.47799744	     12.87216039	      1.58392668	    -10.66481311	     20.49927075	     20.49927075	      9.93468315	     -1.30537439	     -4.38184734	     10.61796175	    -12.46152644	     -3.22977811	     47.35751068	     47.35751068	      8.85761407	    -15.36388569	     -8.05655896	     -9.15561508	      4.70385887	      2.47990729	      1.28701216	    -14.34765626	     -3.90035218	     40.41055749	     45.70791946	      0.00000000	      0.00000000	     13.49509887	    -11.90933320	     -5.43819247	     53.11688854	     46.90941239	      0.00000000	      0.00000000
     32.68285714	     -0.58599072	     -4.97927732	      0.27448419	      1.10013316	      0.93063914	      0.48031219	     12.46254582	      1.91745873	    -11.12717563	     20.40113550	     20.40113550	     10.16451989	     -1.25891892	     -4.44561750	     12.76481944	    -12.90967412	     -2.04404471	     50.87817020	     50.87817020	      7.35377577	    -16.24380456	     -7.49270130	     -9.30641002	      4.93510288	      2.38196221	      3.12893366	    -14.54062144	     -3.93059507	     41.57060734	     45.67691774	      0.00000000	      0.00000000	     12.55735764	    -11.60870886	     -5.15319413	     51.76987468	     46.86037692	      0.00000000	      0.00000000
     32.69592857	     -0.59883335	     -4.99121101	      0.69678921	      1.09899338	      0.93036370	      0.48229675	     12.21474457	      1.97236946	    -11.65359399	     20.50921986	     20.50921986	     10.51151634	     -1.02770150	     -4.50110451	     15.04521670	    -12.92838343	     -0.79462461	     54.42907987	     54.42907987	      7.68100289	    -16.33133984	     -2.37527760	     -9.35250074	      4.98256198	      2.71452252	      4.25487400	    -15.24634285	     -2.71026727	     44.38737137	     45.51770352	      0.00000000	      0.00000000	     13.17301946	    -10.87460515	     -4.69644412	     46.67725342	     46.77076658	      0.00000000	      0.00000000
     32.70900000	     -0.51865182	     -5.20625499	      1.12955958	      1.09793176	      0.93008427	      0.48429570	     11.82245577	      2.29923921	    -12.06418785	     20.51510346	     20.51510346	     10.76913281	     -1.08054875	     -4.54763863	     17.00226712	    -13.27524769	      0.14809145	     57.22760047	     57.22760047	      6.55793809	    -16.96562926	     -1.74953257	     -9.48493882	      5.25211629	      2.63947607	      6.23850709	    -15.47120860	     -2.83285711	     45.58053490	     45.49189935	      0.00000000	      0.00000000	     12.17517902	    -10.54710655	     -4.45762072	     45.45839143	     46.72508693	      0.00000000	      0.00000000
     32.72207143	     -0.53426253	     -5.18980554	      1.56044577	      1.09668498	      0.92991408	      0.48600769	     11.58309614	      2.33016145	    -12.50818534	     20.61364629	     20.61364629	     11.15651926	     -0.90780749	     -4.35859312	     19.08429229	    -13.19461299	      1.07844652	     59.85150727	     59.85150727	      7.51196414	    -16.80776762	      3.71133827	     -9.57363018	      5.22185714	      2.84869355	      7.57830866	    -16.12678441	     -1.75563276	     48.28385662	     45.35985742	      0.00000000	      0.00000000	     12.55576508	     -9.89592192	     -4.09426508	     40.52245311	     46.64656227	      0.00000000	      0.00000000
     32.73514286	     -0.50582384	     -5.28082433	      1.97610753	      1.09558924	      0.92984801	      0.48770299	     11.21098617	      2.52453670	    -12.85386804	     20.54186769	     20.54186769	     11.40432856	     -0.92007317	     -4.35625029	     20.81478392	    -13.32557875	      1.71078834	     61.57229758	     61.57229758	      6.95845056	    -17.29662155	      4.41140355	     -9.68489093	      5.31226379	      2.60315538	      9.66399342	    -16.18566694	     -1.87519115	     49.69248190	     45.32825287	      0.00000000	      0.00000000	     11.40038701	     -9.68224087	     -3.90295112	     38.99476574	     46.59964379	      0.00000000	      0.00000000
     32.74821429	     -0.45960739	     -5.23932436	      2.34466612	      1.09451554	      0.93002537	      0.48911581	     10.79874843	      2.55070128	    -13.23689014	     20.45473609	     20.45473609	     11.71100190	     -0.71759814	     -4.18807898	     22.43733755	    -13.26704649	      2.15171247	     62.90616076	     62.90616076	      7.58621547	    -17.41853859	      7.49889886	     -9.74081812	      5.29783335	      2.82725608	     11.27482381	    -16.78581837	     -1.09018020	     51.73952807	     45.24331061	      0.00000000	      0.00000000	     11.33188158	     -9.08212239	     -3.66237485	     35.15389695	     46.54469738	      0.00000000	      0.00000000
